<svg width="24" height="24" viewBox="0 0 24 24" fill="none" xmlns="http://www.w3.org/2000/svg">
<path fill-rule="evenodd" clip-rule="evenodd" d="M6 0C2.68629 0 0 2.68629 0 6V18C0 21.3137 2.68629 24 6 24H18C21.3137 24 24 21.3137 24 18V6C24 2.68629 21.3137 0 18 0H6ZM16.7416 8.75844C16.397 8.41385 15.8383 8.41385 15.4937 8.75844L10.8235 13.4286L8.50627 11.1114C8.16169 10.7668 7.60302 10.7668 7.25844 11.1114C6.91386 11.456 6.91386 12.0146 7.25844 12.3592L10.1996 15.3004C10.5442 15.645 11.1029 15.645 11.4474 15.3004L16.7416 10.0063C17.0861 9.66169 17.0861 9.10302 16.7416 8.75844Z" fill="#FF5253"/>
</svg>
