<svg width="22" height="27" viewBox="0 0 22 27" fill="none" xmlns="http://www.w3.org/2000/svg">
<path d="M15.0583 3C15.7972 4.12073 16.0292 5.49828 16.0205 6.54076C16.0183 6.8008 15.8 7 15.5399 7H6.46007C6.20003 7 5.98171 6.8008 5.97954 6.54076C5.97085 5.49828 6.20279 4.12073 6.94173 3M15.0583 3C14.3128 1.86929 13.0512 1 11 1C8.94882 1 7.68724 1.86929 6.94173 3M15.0583 3H19.0001C20.1046 3 21.0001 3.89543 21.0001 5V24C21.0001 25.1046 20.1046 26 19.0001 26H3.00006C1.89549 26 1.00006 25.1046 1.00006 24V5C1.00006 3.89543 1.89549 3 3.00006 3H6.94173M7.00006 14H15.0001M7.00006 18H15.0001" stroke="#363636" stroke-width="2" stroke-linecap="round"/>
</svg>
