<svg width="0" height="0" class="hidden">
  <symbol xmlns="http://www.w3.org/2000/svg" viewBox="0 0 20 19" id="star">
    <path d="M7.59798 6.30426L10 0.549456L12.402 6.30426C12.5419 6.63938 12.8576 6.86723 13.2187 6.89608L19.4493 7.39383L14.7036 11.4448C14.4276 11.6804 14.3064 12.0508 14.391 12.4042L15.8415 18.4636L10.5041 15.215C10.1945 15.0266 9.80547 15.0266 9.4959 15.215L4.15848 18.4636L5.60898 12.4042C5.69359 12.0508 5.57245 11.6804 5.29644 11.4448L0.550667 7.39383L6.78134 6.89608C7.14244 6.86723 7.4581 6.63938 7.59798 6.30426Z" stroke="#FFBC1F"></path>
  </symbol>
  <symbol fill="none" xmlns="http://www.w3.org/2000/svg" viewBox="0 0 24 24" id="eye-opened">
    <path d="M12 5.24927C4.5 5.24927 1.5 12 1.5 12C1.5 12 4.5 18.7493 12 18.7493C19.5 18.7493 22.5 12 22.5 12C22.5 12 19.5 5.24927 12 5.24927Z" stroke-width="2" stroke-linecap="round" stroke-linejoin="round"></path>
    <path d="M12 15.75C14.0711 15.75 15.75 14.0711 15.75 12C15.75 9.92893 14.0711 8.25 12 8.25C9.92893 8.25 8.25 9.92893 8.25 12C8.25 14.0711 9.92893 15.75 12 15.75Z" stroke-width="2" stroke-linecap="round" stroke-linejoin="round"></path>
  </symbol>
  <symbol fill="none" xmlns="http://www.w3.org/2000/svg" viewBox="0 0 24 25" id="eye-closed">
    <path d="M18.8578 12.689L20.9962 16.3928" stroke-width="2" stroke-linecap="round" stroke-linejoin="round"></path>
    <path d="M14.4546 14.7476L15.1215 18.5298" stroke-width="2" stroke-linecap="round" stroke-linejoin="round"></path>
    <path d="M9.53714 14.7458L8.87012 18.5287" stroke-width="2" stroke-linecap="round" stroke-linejoin="round"></path>
    <path d="M5.13829 12.6858L2.98956 16.4075" stroke-width="2" stroke-linecap="round" stroke-linejoin="round"></path>
    <path d="M2.99994 10.5862C4.57611 12.5372 7.46564 15.0041 12 15.0041C16.5343 15.0041 19.4239 12.5372 21 10.5862" stroke-width="2" stroke-linecap="round" stroke-linejoin="round"></path>
  </symbol>
  <symbol fill="none" xmlns="http://www.w3.org/2000/svg" viewBox="0 0 24 24" id="check">
    <path d="M17.5 8.5L11 15.5L8 12.5" stroke-width="1.5" stroke-linecap="round" stroke-linejoin="round"></path>
  </symbol>
  <symbol fill="none" xmlns="http://www.w3.org/2000/svg" viewBox="0 0 32 32" id="camera">
    <path d="M19 6H13.3284C12.798 6 12.2893 6.21071 11.9142 6.58579L10.5858 7.91421C10.2107 8.28929 9.70201 8.5 9.17157 8.5H6C4.89543 8.5 4 9.39543 4 10.5V25C4 26.1046 4.89543 27 6 27H25.5C26.6046 27 27.5 26.1046 27.5 25V14.5" stroke-width="1.5" stroke-linecap="round"></path>
    <path d="M26 4V10" stroke-width="1.5" stroke-linecap="round"></path>
    <path d="M23 7H29" stroke-width="1.5" stroke-linecap="round"></path>
    <circle cx="16" cy="17" r="6" stroke-width="1.5"></circle>
  </symbol>
  <symbol xmlns="http://www.w3.org/2000/svg" viewBox="0 0 20 14" id="arrow-long-right">
    <path d="M13 1L19 7M19 7L13 13M19 7H1" stroke-width="2" stroke-linecap="round" stroke-linejoin="round"></path>
  </symbol>
  <symbol xmlns="http://www.w3.org/2000/svg" viewBox="0 0 20 14" id="arrow-long-left">
    <path d="M7 1L1 7M1 7L7 13M1 7H19" stroke-width="2" stroke-linecap="round" stroke-linejoin="round"></path>
  </symbol>
  <symbol fill="none" xmlns="http://www.w3.org/2000/svg" viewBox="0 0 24 24" id="warning">
    <path d="M12 9V13.5" stroke="#363636" stroke-width="1.5" stroke-linecap="round" stroke-linejoin="round"></path>
    <path d="M10.7018 3.74857L2.45399 17.9978C2.32201 18.2258 2.25242 18.4846 2.2522 18.748C2.25198 19.0115 2.32115 19.2703 2.45275 19.4986C2.58434 19.7268 2.77373 19.9163 3.00184 20.0481C3.22996 20.1799 3.48876 20.2493 3.7522 20.2493H20.2477C20.5112 20.2493 20.77 20.1799 20.9981 20.0481C21.2262 19.9163 21.4156 19.7268 21.5472 19.4986C21.6788 19.2703 21.748 19.0115 21.7478 18.748C21.7475 18.4846 21.6779 18.2258 21.546 17.9978L13.2982 3.74857C13.1664 3.52093 12.9771 3.33193 12.7493 3.20055C12.5214 3.06916 12.263 3 12 3C11.7369 3 11.4785 3.06916 11.2507 3.20055C11.0228 3.33193 10.8335 3.52093 10.7018 3.74857V3.74857Z" stroke="#363636" stroke-width="1.5" stroke-linecap="round" stroke-linejoin="round"></path>
    <path d="M12 17.8125C12.5178 17.8125 12.9375 17.3928 12.9375 16.875C12.9375 16.3572 12.5178 15.9375 12 15.9375C11.4822 15.9375 11.0625 16.3572 11.0625 16.875C11.0625 17.3928 11.4822 17.8125 12 17.8125Z" fill="#363636"></path>
  </symbol>
  <symbol fill="none" xmlns="http://www.w3.org/2000/svg" viewBox="0 0 24 24" id="warning-circle">
    <path d="M12 21C16.9706 21 21 16.9706 21 12C21 7.02944 16.9706 3 12 3C7.02944 3 3 7.02944 3 12C3 16.9706 7.02944 21 12 21Z" stroke="#363636" stroke-width="1.5" stroke-linecap="round" stroke-linejoin="round"></path>
    <path d="M12 7.5V12.75" stroke="#363636" stroke-width="1.5" stroke-linecap="round" stroke-linejoin="round"></path>
    <path d="M12 17.0625C12.5178 17.0625 12.9375 16.6428 12.9375 16.125C12.9375 15.6072 12.5178 15.1875 12 15.1875C11.4822 15.1875 11.0625 15.6072 11.0625 16.125C11.0625 16.6428 11.4822 17.0625 12 17.0625Z" fill="#363636"></path>
  </symbol>
  <symbol fill="none" xmlns="http://www.w3.org/2000/svg" viewBox="0 0 24 24" id="warning-circle-fill">
    <path d="M12 21C16.9706 21 21 16.9706 21 12C21 7.02944 16.9706 3 12 3C7.02944 3 3 7.02944 3 12C3 16.9706 7.02944 21 12 21Z" fill="#F42C4F" stroke="#F42C4F" stroke-width="1.5" stroke-linecap="round" stroke-linejoin="round"></path>
    <path d="M12 7.5V12.75" stroke="white" stroke-width="1.5" stroke-linecap="round" stroke-linejoin="round"></path>
    <path d="M12 17.0625C12.5178 17.0625 12.9375 16.6428 12.9375 16.125C12.9375 15.6072 12.5178 15.1875 12 15.1875C11.4822 15.1875 11.0625 15.6072 11.0625 16.125C11.0625 16.6428 11.4822 17.0625 12 17.0625Z" fill="white"></path>
  </symbol>
  <symbol xmlns="http://www.w3.org/2000/svg" viewBox="0 0 22 14" id="vk">
    <path d="M21.4986 1.46959C21.6497 0.953963 21.4986 0.574463 20.7716 0.574463H18.3661C17.7535 0.574463 17.4717 0.900338 17.3206 1.26334C17.3206 1.26334 16.0954 4.27871 14.3637 6.23396C13.8042 6.79909 13.5469 6.98059 13.2406 6.98059C13.0895 6.98059 12.8567 6.79909 12.8567 6.28346V1.46959C12.8567 0.850838 12.6852 0.574463 12.1787 0.574463H8.39687C8.01297 0.574463 7.78426 0.863213 7.78426 1.13134C7.78426 1.71709 8.65009 1.85321 8.73993 3.50321V7.08371C8.73993 7.86746 8.60108 8.01184 8.29477 8.01184C7.47795 8.01184 5.49309 4.98409 4.31687 1.51909C4.08 0.846713 3.84721 0.574463 3.23051 0.574463H0.824984C0.138859 0.574463 1.55795e-08 0.900338 1.55795e-08 1.26334C1.55795e-08 1.90684 0.816816 5.10371 3.80228 9.32771C5.79123 12.2111 8.59291 13.7745 11.1414 13.7745C12.6729 13.7745 12.8608 13.428 12.8608 12.8298C12.8608 10.0743 12.7219 9.81446 13.4897 9.81446C13.845 9.81446 14.4577 9.99596 15.8871 11.3861C17.5207 13.0361 17.7903 13.7745 18.7051 13.7745H21.1106C21.7967 13.7745 22.1439 13.428 21.9438 12.7432C21.4864 11.3036 18.3947 8.34184 18.2558 8.14384C17.9005 7.68184 18.0026 7.47559 18.2558 7.06309C18.2599 7.05896 21.1964 2.88446 21.4986 1.46959Z"></path>
  </symbol>
  <symbol fill="none" xmlns="http://www.w3.org/2000/svg" viewBox="0 0 20 19" id="star-fill">
    <path d="M9.56754 0.28749C9.72753 -0.0958305 10.2725 -0.0958298 10.4325 0.287491L12.8634 6.11167C12.9309 6.27326 13.0834 6.38368 13.2585 6.39766L19.5684 6.90174C19.9837 6.93492 20.1521 7.45136 19.8357 7.72144L15.0282 11.8251C14.8948 11.9389 14.8365 12.1176 14.8773 12.2878L16.3461 18.4235C16.4427 18.8274 16.0019 19.1465 15.6463 18.9301L10.2441 15.6421C10.0943 15.5509 9.90574 15.5509 9.75586 15.6421L4.35369 18.9301C3.99814 19.1465 3.55728 18.8274 3.65395 18.4235L5.12271 12.2878C5.16347 12.1176 5.10521 11.9389 4.97182 11.8251L0.164335 7.72144C-0.152072 7.45136 0.0163223 6.93492 0.431612 6.90174L6.74153 6.39766C6.9166 6.38368 7.06911 6.27326 7.13656 6.11167L9.56754 0.28749Z" fill="#FFBC1F"></path>
  </symbol>
  <symbol xmlns="http://www.w3.org/2000/svg" viewBox="0 0 24 25" id="square-four">
    <path fill-rule="evenodd" clip-rule="evenodd" d="M3.81818 3.75415C3.36631 3.75415 3 4.12046 3 4.57233V11.1178C3 11.5697 3.36631 11.936 3.81818 11.936H10.3636C10.8155 11.936 11.1818 11.5697 11.1818 11.1178V4.57233C11.1818 4.12046 10.8155 3.75415 10.3636 3.75415H3.81818ZM4.63636 10.2996V5.39051H9.54545V10.2996H4.63636ZM13.6364 3.75415C13.1845 3.75415 12.8182 4.12046 12.8182 4.57233V11.1178C12.8182 11.5697 13.1845 11.936 13.6364 11.936H20.1818C20.6337 11.936 21 11.5697 21 11.1178V4.57233C21 4.12046 20.6337 3.75415 20.1818 3.75415H13.6364ZM14.4545 10.2996V5.39051H19.3636V10.2996H14.4545ZM3 14.3905C3 13.9386 3.36631 13.5723 3.81818 13.5723H10.3636C10.8155 13.5723 11.1818 13.9386 11.1818 14.3905V20.936C11.1818 21.3878 10.8155 21.7542 10.3636 21.7542H3.81818C3.36631 21.7542 3 21.3878 3 20.936V14.3905ZM4.63636 15.2087V20.1178H9.54545V15.2087H4.63636ZM13.6364 13.5723C13.1845 13.5723 12.8182 13.9386 12.8182 14.3905V20.936C12.8182 21.3878 13.1845 21.7542 13.6364 21.7542H20.1818C20.6337 21.7542 21 21.3878 21 20.936V14.3905C21 13.9386 20.6337 13.5723 20.1818 13.5723H13.6364ZM14.4545 20.1178V15.2087H19.3636V20.1178H14.4545Z"></path>
  </symbol>
  <symbol xmlns="http://www.w3.org/2000/svg" viewBox="0 0 24 25" id="sort-descending">
    <path fill-rule="evenodd" clip-rule="evenodd" d="M16.7197 4.72382C16.7916 4.65191 16.8744 4.59766 16.9629 4.56106L17.7803 4.72378L17.7808 4.72431L21.5302 8.47312C21.8231 8.766 21.8231 9.24087 21.5303 9.53378C21.2374 9.8267 20.7625 9.82674 20.4696 9.53386L18 7.06462V14.2542C18 14.6684 17.6642 15.0042 17.25 15.0042C16.8358 15.0042 16.5 14.6684 16.5 14.2542V7.06481L14.0303 9.53448C13.7374 9.82737 13.2626 9.82737 12.9697 9.53448C12.6768 9.24159 12.6768 8.76671 12.9697 8.47382L16.7197 4.72382ZM16.9629 4.56106L17.7754 4.71893C17.6401 4.58608 17.4546 4.50415 17.25 4.50415C17.1483 4.50415 17.0513 4.52439 16.9629 4.56106ZM4.5 12.0042C4.08579 12.0042 3.75 12.3399 3.75 12.7542C3.75 13.1684 4.08579 13.5042 4.5 13.5042H11.2499C11.6641 13.5042 11.9999 13.1684 11.9999 12.7542C11.9999 12.3399 11.6641 12.0042 11.2499 12.0042H4.5ZM3.75 6.75415C3.75 6.33994 4.08579 6.00415 4.5 6.00415H9.74991C10.1641 6.00415 10.4999 6.33994 10.4999 6.75415C10.4999 7.16836 10.1641 7.50415 9.74991 7.50415H4.5C4.08579 7.50415 3.75 7.16836 3.75 6.75415ZM4.5 18.0042C4.08579 18.0042 3.75 18.3399 3.75 18.7542C3.75 19.1684 4.08579 19.5042 4.5 19.5042H17.2499C17.6641 19.5042 17.9999 19.1684 17.9999 18.7542C17.9999 18.3399 17.6641 18.0042 17.2499 18.0042H4.5Z"></path>
  </symbol>
  <symbol xmlns="http://www.w3.org/2000/svg" viewBox="0 0 24 25" id="sort-ascending">
    <g opacity="0.9">
      <path fill-rule="evenodd" clip-rule="evenodd" d="M3.75 6.75415C3.75 6.33994 4.08579 6.00415 4.5 6.00415H17.2499C17.6641 6.00415 17.9999 6.33994 17.9999 6.75415C17.9999 7.16836 17.6641 7.50415 17.2499 7.50415H4.5C4.08579 7.50415 3.75 7.16836 3.75 6.75415ZM17.25 10.5042C17.6642 10.5042 18 10.8399 18 11.2542L17.7754 20.7894C17.6401 20.9222 17.4546 21.0042 17.25 21.0042C17.1483 21.0042 17.0513 20.9839 16.9629 20.9472C16.8744 20.9106 16.7916 20.8564 16.7197 20.7845L12.9697 17.0345C12.6768 16.7416 12.6768 16.2667 12.9697 15.9738C13.2626 15.6809 13.7374 15.6809 14.0303 15.9738L16.5 18.4435V11.2542C16.5 10.8399 16.8358 10.5042 17.25 10.5042ZM18 11.2542L17.781 20.7838L21.5302 17.0351C21.8231 16.7422 21.8231 16.2673 21.5303 15.9744C21.2374 15.6815 20.7625 15.6815 20.4696 15.9743L18 18.4436V11.2542ZM4.5 12.0042C4.08579 12.0042 3.75 12.3399 3.75 12.7542C3.75 13.1684 4.08579 13.5042 4.5 13.5042H11.2499C11.6641 13.5042 11.9999 13.1684 11.9999 12.7542C11.9999 12.3399 11.6641 12.0042 11.2499 12.0042H4.5ZM4.5 18.0042C4.08579 18.0042 3.75 18.3399 3.75 18.7542C3.75 19.1684 4.08579 19.5042 4.5 19.5042H9.75C10.1642 19.5042 10.5 19.1684 10.5 18.7542C10.5 18.3399 10.1642 18.0042 9.75 18.0042H4.5Z"></path>
    </g>
  </symbol>
  <symbol fill="none" xmlns="http://www.w3.org/2000/svg" viewBox="0 0 24 25" id="share">
    <path d="M4 12.7542V20.7542C4 21.2846 4.21071 21.7933 4.58579 22.1684C4.96086 22.5434 5.46957 22.7542 6 22.7542H18C18.5304 22.7542 19.0391 22.5434 19.4142 22.1684C19.7893 21.7933 20 21.2846 20 20.7542V12.7542" stroke="#363636" stroke-width="2" stroke-linecap="round" stroke-linejoin="round"></path>
    <path d="M16 6.75415L12 2.75415L8 6.75415" stroke="#363636" stroke-width="2" stroke-linecap="round" stroke-linejoin="round"></path>
    <path d="M12 2.75415V15.7542" stroke="#363636" stroke-width="2" stroke-linecap="round" stroke-linejoin="round"></path>
  </symbol>
  <symbol xmlns="http://www.w3.org/2000/svg" viewBox="0 0 11 21" id="separator">
    <path d="M1 19.2458L10 1.24585" stroke-width="2" stroke-linecap="round"></path>
  </symbol>
  <symbol xmlns="http://www.w3.org/2000/svg" viewBox="0 0 24 25" id="search">
    <path fill-rule="evenodd" clip-rule="evenodd" d="M11 4.75415C7.13401 4.75415 4 7.88816 4 11.7542C4 15.6201 7.13401 18.7542 11 18.7542C14.866 18.7542 18 15.6201 18 11.7542C18 7.88816 14.866 4.75415 11 4.75415ZM2 11.7542C2 6.78359 6.02944 2.75415 11 2.75415C15.9706 2.75415 20 6.78359 20 11.7542C20 16.7247 15.9706 20.7542 11 20.7542C6.02944 20.7542 2 16.7247 2 11.7542Z"></path>
    <path fill-rule="evenodd" clip-rule="evenodd" d="M15.9429 16.6969C16.3334 16.3064 16.9666 16.3064 17.3571 16.6969L21.7071 21.0469C22.0977 21.4375 22.0977 22.0706 21.7071 22.4612C21.3166 22.8517 20.6834 22.8517 20.2929 22.4612L15.9429 18.1112C15.5524 17.7206 15.5524 17.0875 15.9429 16.6969Z"></path>
  </symbol>
  <symbol fill="none" xmlns="http://www.w3.org/2000/svg" viewBox="0 0 24 25" id="pencil">
    <path d="M8.68934 21.0043H4.5C4.30109 21.0043 4.11032 20.9253 3.96967 20.7846C3.82902 20.644 3.75 20.4532 3.75 20.2543V16.0649C3.75 15.9664 3.7694 15.8689 3.80709 15.7779C3.84478 15.6869 3.90003 15.6043 3.96967 15.5346L15.2197 4.28461C15.3603 4.14396 15.5511 4.06494 15.75 4.06494C15.9489 4.06494 16.1397 4.14396 16.2803 4.28461L20.4697 8.47395C20.6103 8.6146 20.6893 8.80537 20.6893 9.00428C20.6893 9.20319 20.6103 9.39396 20.4697 9.53461L9.21967 20.7846C9.15003 20.8543 9.06735 20.9095 8.97635 20.9472C8.88536 20.9849 8.78783 21.0043 8.68934 21.0043Z" stroke="#363636" stroke-width="2" stroke-linecap="round" stroke-linejoin="round"></path>
    <path d="M12.75 6.75415L18 12.0042" stroke="#363636" stroke-width="2" stroke-linecap="round" stroke-linejoin="round"></path>
    <path d="M8.95211 20.9564L3.79773 15.802" stroke="#363636" stroke-width="2" stroke-linecap="round" stroke-linejoin="round"></path>
  </symbol>
  <symbol fill="none" xmlns="http://www.w3.org/2000/svg" viewBox="0 0 24 25" id="more">
    <path d="M12 13.7542C12.5523 13.7542 13 13.3064 13 12.7542C13 12.2019 12.5523 11.7542 12 11.7542C11.4477 11.7542 11 12.2019 11 12.7542C11 13.3064 11.4477 13.7542 12 13.7542Z" stroke="#363636" stroke-width="2" stroke-linecap="round" stroke-linejoin="round"></path>
    <path d="M12 6.75415C12.5523 6.75415 13 6.30644 13 5.75415C13 5.20187 12.5523 4.75415 12 4.75415C11.4477 4.75415 11 5.20187 11 5.75415C11 6.30644 11.4477 6.75415 12 6.75415Z" stroke="#363636" stroke-width="2" stroke-linecap="round" stroke-linejoin="round"></path>
    <path d="M12 20.7542C12.5523 20.7542 13 20.3064 13 19.7542C13 19.2019 12.5523 18.7542 12 18.7542C11.4477 18.7542 11 19.2019 11 19.7542C11 20.3064 11.4477 20.7542 12 20.7542Z" stroke="#363636" stroke-width="2" stroke-linecap="round" stroke-linejoin="round"></path>
  </symbol>
  <symbol xmlns="http://www.w3.org/2000/svg" viewBox="0 0 24 25" id="menu">
    <path fill-rule="evenodd" clip-rule="evenodd" d="M2 12.7542C2 12.2019 2.44772 11.7542 3 11.7542H21C21.5523 11.7542 22 12.2019 22 12.7542C22 13.3064 21.5523 13.7542 21 13.7542H3C2.44772 13.7542 2 13.3064 2 12.7542Z"></path>
    <path fill-rule="evenodd" clip-rule="evenodd" d="M2 6.75415C2 6.20187 2.44772 5.75415 3 5.75415H21C21.5523 5.75415 22 6.20187 22 6.75415C22 7.30644 21.5523 7.75415 21 7.75415H3C2.44772 7.75415 2 7.30644 2 6.75415Z"></path>
    <path fill-rule="evenodd" clip-rule="evenodd" d="M2 18.7542C2 18.2019 2.44772 17.7542 3 17.7542H21C21.5523 17.7542 22 18.2019 22 18.7542C22 19.3064 21.5523 19.7542 21 19.7542H3C2.44772 19.7542 2 19.3064 2 18.7542Z"></path>
  </symbol>
  <symbol fill="none" xmlns="http://www.w3.org/2000/svg" viewBox="0 0 495 120" id="logo">
    <path d="M0 21C0 9.40202 9.40205 0 21.0001 0H99.0003C110.598 0 120 9.40202 120 21V99C120 110.598 110.598 120 99.0003 120H21.0001C9.40205 120 0 110.598 0 99V21Z" fill="#6E76F1"></path>
    <path fill-rule="evenodd" clip-rule="evenodd" d="M97.6125 41.1262H85.6456C79.8216 33.4003 70.5093 28.3937 60.0263 28.3937C42.3976 28.3937 28.0865 42.5486 28.0865 59.9815C28.0865 77.4159 42.3976 91.5694 60.0263 91.5694C70.5093 91.5694 79.8216 86.5628 85.6456 78.8383H97.6125C90.6487 92.3766 76.425 101.66 60.0263 101.66C36.7669 101.66 17.8842 82.9856 17.8842 59.9815C17.8842 36.9789 36.7669 18.3042 60.0263 18.3042C76.425 18.3042 90.6487 27.5879 97.6125 41.1262ZM70.0551 61.8428C69.1707 66.5249 65.0139 70.0724 60.0263 70.0724C54.3941 70.0724 49.8226 65.5512 49.8226 59.9815C49.8226 54.4133 54.3941 49.8921 60.0263 49.8921C65.0139 49.8921 69.1707 53.4396 70.0551 58.1217H120V61.8428H70.0551Z" fill="white"></path>
    <path d="M167.169 84C162.791 84 158.826 83.0417 155.275 81.125C151.764 79.1667 148.997 76.4792 146.974 73.0625C144.991 69.6458 144 65.7917 144 61.5C144 57.2083 145.012 53.3542 147.035 49.9375C149.059 46.5208 151.826 43.8542 155.337 41.9375C158.888 39.9792 162.853 39 167.231 39C170.782 39 174.024 39.625 176.956 40.875C179.889 42.125 182.367 43.9375 184.39 46.3125L179.187 51.25C176.048 47.8333 172.186 46.125 167.602 46.125C164.629 46.125 161.965 46.7917 159.611 48.125C157.257 49.4167 155.419 51.2292 154.098 53.5625C152.776 55.8958 152.115 58.5417 152.115 61.5C152.115 64.4583 152.776 67.1042 154.098 69.4375C155.419 71.7708 157.257 73.6042 159.611 74.9375C161.965 76.2292 164.629 76.875 167.602 76.875C172.186 76.875 176.048 75.1458 179.187 71.6875L184.39 76.6875C182.367 79.0625 179.868 80.875 176.895 82.125C173.962 83.375 170.72 84 167.169 84Z" fill="#363636"></path>
    <path d="M191.363 37H199.107V83.375H191.363V37Z" fill="#363636"></path>
    <path d="M240.368 66.875C240.368 67.4167 240.327 68.1875 240.244 69.1875H214.288C214.742 71.6458 215.919 73.6042 217.819 75.0625C219.76 76.4792 222.155 77.1875 225.005 77.1875C228.639 77.1875 231.634 75.9792 233.988 73.5625L238.138 78.375C236.651 80.1667 234.772 81.5208 232.501 82.4375C230.229 83.3542 227.669 83.8125 224.819 83.8125C221.185 83.8125 217.984 83.0833 215.217 81.625C212.45 80.1667 210.303 78.1458 208.775 75.5625C207.288 72.9375 206.545 69.9792 206.545 66.6875C206.545 63.4375 207.267 60.5208 208.713 57.9375C210.199 55.3125 212.244 53.2708 214.846 51.8125C217.447 50.3542 220.38 49.625 223.642 49.625C226.864 49.625 229.734 50.3542 232.253 51.8125C234.814 53.2292 236.796 55.25 238.2 57.875C239.646 60.4583 240.368 63.4583 240.368 66.875ZM223.642 55.875C221.164 55.875 219.058 56.625 217.324 58.125C215.63 59.5833 214.598 61.5417 214.226 64H232.996C232.666 61.5833 231.654 59.625 229.961 58.125C228.268 56.625 226.161 55.875 223.642 55.875Z" fill="#363636"></path>
    <path d="M278.176 50L263.989 83.375H255.998L241.812 50H249.865L260.149 74.75L270.742 50H278.176Z" fill="#363636"></path>
    <path d="M313.206 66.875C313.206 67.4167 313.165 68.1875 313.082 69.1875H287.126C287.58 71.6458 288.757 73.6042 290.657 75.0625C292.598 76.4792 294.993 77.1875 297.843 77.1875C301.477 77.1875 304.471 75.9792 306.825 73.5625L310.976 78.375C309.489 80.1667 307.61 81.5208 305.338 82.4375C303.067 83.3542 300.506 83.8125 297.657 83.8125C294.023 83.8125 290.822 83.0833 288.055 81.625C285.288 80.1667 283.14 78.1458 281.612 75.5625C280.126 72.9375 279.382 69.9792 279.382 66.6875C279.382 63.4375 280.105 60.5208 281.55 57.9375C283.037 55.3125 285.081 53.2708 287.683 51.8125C290.285 50.3542 293.217 49.625 296.48 49.625C299.701 49.625 302.571 50.3542 305.091 51.8125C307.651 53.2292 309.634 55.25 311.038 57.875C312.483 60.4583 313.206 63.4583 313.206 66.875ZM296.48 55.875C294.002 55.875 291.896 56.625 290.161 58.125C288.468 59.5833 287.435 61.5417 287.064 64H305.834C305.504 61.5833 304.492 59.625 302.799 58.125C301.105 56.625 298.999 55.875 296.48 55.875Z" fill="#363636"></path>
    <path d="M328.016 54.875C330.246 51.375 334.169 49.625 339.786 49.625V57.0625C339.125 56.9375 338.526 56.875 337.99 56.875C334.975 56.875 332.621 57.7708 330.927 59.5625C329.234 61.3125 328.388 63.8542 328.388 67.1875V83.375H320.644V50H328.016V54.875Z" fill="#363636"></path>
    <path d="M346.355 37H354.099V83.375H346.355V37Z" fill="#363636"></path>
    <path d="M376.899 49.625C381.773 49.625 385.489 50.8125 388.05 53.1875C390.652 55.5208 391.953 59.0625 391.953 63.8125V83.375H384.643V79.3125C383.693 80.7708 382.33 81.8958 380.554 82.6875C378.82 83.4375 376.713 83.8125 374.236 83.8125C371.758 83.8125 369.589 83.3958 367.731 82.5625C365.873 81.6875 364.427 80.5 363.395 79C362.403 77.4583 361.908 75.7292 361.908 73.8125C361.908 70.8125 363.002 68.4167 365.191 66.625C367.421 64.7917 370.911 63.875 375.66 63.875H384.209V63.375C384.209 61.0417 383.507 59.25 382.103 58C380.74 56.75 378.696 56.125 375.97 56.125C374.112 56.125 372.274 56.4167 370.457 57C368.681 57.5833 367.173 58.3958 365.934 59.4375L362.899 53.75C364.634 52.4167 366.719 51.3958 369.156 50.6875C371.592 49.9792 374.174 49.625 376.899 49.625ZM375.846 78.125C377.787 78.125 379.501 77.6875 380.988 76.8125C382.516 75.8958 383.59 74.6042 384.209 72.9375V69.0625H376.218C371.758 69.0625 369.527 70.5417 369.527 73.5C369.527 74.9167 370.085 76.0417 371.2 76.875C372.315 77.7083 373.864 78.125 375.846 78.125Z" fill="#363636"></path>
    <path d="M420.661 49.625C424.832 49.625 428.177 50.8542 430.697 53.3125C433.216 55.7708 434.475 59.4167 434.475 64.25V83.375H426.732V65.25C426.732 62.3333 426.05 60.1458 424.688 58.6875C423.325 57.1875 421.384 56.4375 418.864 56.4375C416.015 56.4375 413.764 57.3125 412.112 59.0625C410.46 60.7708 409.634 63.25 409.634 66.5V83.375H401.891V50H409.262V54.3125C410.543 52.7708 412.153 51.6042 414.094 50.8125C416.035 50.0208 418.224 49.625 420.661 49.625Z" fill="#363636"></path>
    <path d="M477 37V83.375H469.566V79.0625C468.286 80.6458 466.696 81.8333 464.796 82.625C462.938 83.4167 460.873 83.8125 458.601 83.8125C455.421 83.8125 452.551 83.1042 449.991 81.6875C447.471 80.2708 445.489 78.2708 444.044 75.6875C442.598 73.0625 441.875 70.0625 441.875 66.6875C441.875 63.3125 442.598 60.3333 444.044 57.75C445.489 55.1667 447.471 53.1667 449.991 51.75C452.551 50.3333 455.421 49.625 458.601 49.625C460.79 49.625 462.793 50 464.61 50.75C466.427 51.5 467.976 52.625 469.256 54.125V37H477ZM459.531 77.125C461.389 77.125 463.062 76.7083 464.548 75.875C466.035 75 467.212 73.7708 468.079 72.1875C468.947 70.6042 469.38 68.7708 469.38 66.6875C469.38 64.6042 468.947 62.7708 468.079 61.1875C467.212 59.6042 466.035 58.3958 464.548 57.5625C463.062 56.6875 461.389 56.25 459.531 56.25C457.672 56.25 456 56.6875 454.513 57.5625C453.026 58.3958 451.849 59.6042 450.982 61.1875C450.114 62.7708 449.681 64.6042 449.681 66.6875C449.681 68.7708 450.114 70.6042 450.982 72.1875C451.849 73.7708 453.026 75 454.513 75.875C456 76.7083 457.672 77.125 459.531 77.125Z" fill="#363636"></path>
  </symbol>
  <symbol xmlns="http://www.w3.org/2000/svg" viewBox="0 0 18 20" id="linkedin">
    <path d="M4.02901 19.5745H0.297255V6.88942H4.02901V19.5745ZM2.16112 5.15906C0.968087 5.15906 0 4.11576 0 2.85616C0 1.59656 0.968087 0.574463 2.16112 0.574463C3.35416 0.574463 4.32225 1.59656 4.32225 2.85616C4.32225 4.11576 3.35416 5.15906 2.16112 5.15906ZM17.996 19.5745H14.2723V13.3995C14.2723 11.9278 14.2441 10.0405 12.3321 10.0405C10.3919 10.0405 10.0946 11.6394 10.0946 13.2934V19.5745H6.36688V6.88942H9.94599V8.61977H9.99821C10.4963 7.62312 11.7135 6.57134 13.5291 6.57134C17.3051 6.57134 18 9.19656 18 12.6064V19.5745H17.996Z"></path>
  </symbol>
  <symbol xmlns="http://www.w3.org/2000/svg" viewBox="0 0 18 19" id="instagram">
    <path fill-rule="evenodd" clip-rule="evenodd" d="M4 9.5C4 6.57413 6 4.5 9 4.5C12.0017 4.5 14 6.48181 14 9.57446C14 12.5748 12.0017 14.5 9.00201 14.5C6.00234 14.5 4 12.5748 4 9.5ZM6.00234 9.57446C6.00234 11.2293 7.35159 12.5748 9.00201 12.5748C10.6524 12.5748 12.0017 11.2293 12.0017 9.57446C12.0017 7.91966 10.6564 6.57413 9.00201 6.57413C7.34757 6.57413 6.00234 7.91966 6.00234 9.57446ZM14.8047 5.84714C15.399 5.84714 15.8809 5.36917 15.8809 4.77071C15.8809 4.17627 15.399 3.69429 14.8047 3.69429C14.2104 3.69429 13.7285 4.17627 13.7285 4.77071C13.7285 5.36516 14.2064 5.84714 14.8047 5.84714ZM16.4831 2.0917C17.5392 3.14403 17.8685 4.42128 17.9368 5.86321C18.0211 7.34931 18.0211 11.7996 17.9368 13.2857C17.8645 14.7276 17.5352 16.0049 16.4831 17.0572C15.431 18.1136 14.154 18.4429 12.7124 18.5112C11.2267 18.5955 6.77334 18.5955 5.28756 18.5112C3.84596 18.4389 2.57301 18.1096 1.5169 17.0572C0.460792 16.0049 0.131511 14.7276 0.063246 13.2857C-0.021082 11.7996 -0.021082 7.3453 0.063246 5.85919C0.135527 4.41726 0.460792 3.14001 1.5169 2.08768C2.57301 1.03536 3.84997 0.706004 5.28756 0.637723C6.77334 0.553376 11.2267 0.553376 12.7124 0.637723C14.154 0.71002 15.431 1.03937 16.4831 2.0917Z"></path>
  </symbol>
  <symbol fill="none" xmlns="http://www.w3.org/2000/svg" viewBox="0 0 24 25" id="info">
    <path d="M12 22.7542C17.5228 22.7542 22 18.277 22 12.7542C22 7.2313 17.5228 2.75415 12 2.75415C6.47715 2.75415 2 7.2313 2 12.7542C2 18.277 6.47715 22.7542 12 22.7542Z" stroke="#363636" stroke-width="2" stroke-linecap="round" stroke-linejoin="round"></path>
    <path d="M12 16.7542V12.7542" stroke="#363636" stroke-width="2" stroke-linecap="round" stroke-linejoin="round"></path>
    <path d="M12 8.75415H12.01" stroke="#363636" stroke-width="2" stroke-linecap="round" stroke-linejoin="round"></path>
  </symbol>
  <symbol fill="none" xmlns="http://www.w3.org/2000/svg" viewBox="0 0 24 25" id="filter">
    <path d="M4 21.7542V14.7542" stroke="#363636" stroke-width="2" stroke-linecap="round" stroke-linejoin="round"></path>
    <path d="M4 10.7542V3.75415" stroke="#363636" stroke-width="2" stroke-linecap="round" stroke-linejoin="round"></path>
    <path d="M12 21.7542V12.7542" stroke="#363636" stroke-width="2" stroke-linecap="round" stroke-linejoin="round"></path>
    <path d="M12 8.75415V3.75415" stroke="#363636" stroke-width="2" stroke-linecap="round" stroke-linejoin="round"></path>
    <path d="M20 21.7542V16.7542" stroke="#363636" stroke-width="2" stroke-linecap="round" stroke-linejoin="round"></path>
    <path d="M20 12.7542V3.75415" stroke="#363636" stroke-width="2" stroke-linecap="round" stroke-linejoin="round"></path>
    <path d="M1 14.7542H7" stroke="#363636" stroke-width="2" stroke-linecap="round" stroke-linejoin="round"></path>
    <path d="M9 8.75415H15" stroke="#363636" stroke-width="2" stroke-linecap="round" stroke-linejoin="round"></path>
    <path d="M17 16.7542H23" stroke="#363636" stroke-width="2" stroke-linecap="round" stroke-linejoin="round"></path>
  </symbol>
  <symbol xmlns="http://www.w3.org/2000/svg" viewBox="0 0 10 19" id="facebook">
    <path d="M2.87625 18.5745V10.5237H0V7.32446H2.87625V4.80376C2.87625 2.06509 4.66125 0.574463 7.2675 0.574463C8.51625 0.574463 9.58875 0.662354 9.9 0.701025V3.56274H8.0925C6.675 3.56274 6.40125 4.19556 6.40125 5.12017V7.32446H9.6L9.16125 10.5237H6.40125V18.5745"></path>
  </symbol>
  <symbol fill="none" xmlns="http://www.w3.org/2000/svg" viewBox="0 0 22 27" id="document">
    <path d="M15.0583 3C15.7972 4.12073 16.0292 5.49828 16.0205 6.54076C16.0183 6.8008 15.8 7 15.5399 7H6.46007C6.20003 7 5.98171 6.8008 5.97954 6.54076C5.97085 5.49828 6.20279 4.12073 6.94173 3M15.0583 3C14.3128 1.86929 13.0512 1 11 1C8.94882 1 7.68724 1.86929 6.94173 3M15.0583 3H19.0001C20.1046 3 21.0001 3.89543 21.0001 5V24C21.0001 25.1046 20.1046 26 19.0001 26H3.00006C1.89549 26 1.00006 25.1046 1.00006 24V5C1.00006 3.89543 1.89549 3 3.00006 3H6.94173M7.00006 14H15.0001M7.00006 18H15.0001" stroke="#363636" stroke-width="2" stroke-linecap="round"></path>
  </symbol>
  <symbol fill="none" xmlns="http://www.w3.org/2000/svg" viewBox="0 0 24 25" id="delete">
    <path d="M3 6.75415H5H21" stroke="#363636" stroke-width="2" stroke-linecap="round" stroke-linejoin="round"></path>
    <path d="M8 6.75415V4.75415C8 4.22372 8.21071 3.71501 8.58579 3.33994C8.96086 2.96486 9.46957 2.75415 10 2.75415H14C14.5304 2.75415 15.0391 2.96486 15.4142 3.33994C15.7893 3.71501 16 4.22372 16 4.75415V6.75415M19 6.75415V20.7542C19 21.2846 18.7893 21.7933 18.4142 22.1684C18.0391 22.5434 17.5304 22.7542 17 22.7542H7C6.46957 22.7542 5.96086 22.5434 5.58579 22.1684C5.21071 21.7933 5 21.2846 5 20.7542V6.75415H19Z" stroke="#363636" stroke-width="2" stroke-linecap="round" stroke-linejoin="round"></path>
    <path d="M10 11.7542V17.7542" stroke="#363636" stroke-width="2" stroke-linecap="round" stroke-linejoin="round"></path>
    <path d="M14 11.7542V17.7542" stroke="#363636" stroke-width="2" stroke-linecap="round" stroke-linejoin="round"></path>
  </symbol>
  <symbol xmlns="http://www.w3.org/2000/svg" viewBox="0 0 24 25" id="close">
    <path fill-rule="evenodd" clip-rule="evenodd" d="M18.7071 6.04704C19.0976 6.43757 19.0976 7.07073 18.7071 7.46126L6.70711 19.4613C6.31658 19.8518 5.68342 19.8518 5.29289 19.4613C4.90237 19.0707 4.90237 18.4376 5.29289 18.047L17.2929 6.04704C17.6834 5.65652 18.3166 5.65652 18.7071 6.04704Z"></path>
    <path fill-rule="evenodd" clip-rule="evenodd" d="M5.29289 6.04704C5.68342 5.65652 6.31658 5.65652 6.70711 6.04704L18.7071 18.047C19.0976 18.4376 19.0976 19.0707 18.7071 19.4613C18.3166 19.8518 17.6834 19.8518 17.2929 19.4613L5.29289 7.46126C4.90237 7.07073 4.90237 6.43757 5.29289 6.04704Z"></path>
  </symbol>
  <symbol fill="none" xmlns="http://www.w3.org/2000/svg" viewBox="0 0 24 24" id="checkbox-active">
    <path fill-rule="evenodd" clip-rule="evenodd" d="M6 0C2.68629 0 0 2.68629 0 6V18C0 21.3137 2.68629 24 6 24H18C21.3137 24 24 21.3137 24 18V6C24 2.68629 21.3137 0 18 0H6ZM16.7416 8.75844C16.397 8.41385 15.8383 8.41385 15.4937 8.75844L10.8235 13.4286L8.50627 11.1114C8.16169 10.7668 7.60302 10.7668 7.25844 11.1114C6.91386 11.456 6.91386 12.0146 7.25844 12.3592L10.1996 15.3004C10.5442 15.645 11.1029 15.645 11.4474 15.3004L16.7416 10.0063C17.0861 9.66169 17.0861 9.10302 16.7416 8.75844Z" fill="#FF5253"></path>
  </symbol>
  <symbol fill="none" xmlns="http://www.w3.org/2000/svg" viewBox="0 0 24 24" id="check-circle">
    <path d="M12 21C16.9706 21 21 16.9706 21 12C21 7.02944 16.9706 3 12 3C7.02944 3 3 7.02944 3 12C3 16.9706 7.02944 21 12 21Z" stroke="#363636" stroke-width="1.5" stroke-linecap="round" stroke-linejoin="round"></path>
    <path d="M16.125 9.75L10.625 15L7.875 12.375" stroke="#363636" stroke-width="1.5" stroke-linecap="round" stroke-linejoin="round"></path>
  </symbol>
  <symbol fill="none" xmlns="http://www.w3.org/2000/svg" viewBox="0 0 24 24" id="check-circle-fill">
    <path d="M12 21C16.9706 21 21 16.9706 21 12C21 7.02944 16.9706 3 12 3C7.02944 3 3 7.02944 3 12C3 16.9706 7.02944 21 12 21Z" fill="#00CA71" stroke="#00CA71" stroke-width="1.5" stroke-linecap="round" stroke-linejoin="round"></path>
    <path d="M16.125 9.75L10.625 15L7.875 12.375" stroke="white" stroke-width="1.5" stroke-linecap="round" stroke-linejoin="round"></path>
  </symbol>
  <symbol fill="none" xmlns="http://www.w3.org/2000/svg" viewBox="0 0 48 48" id="cat">
    <path d="M30.25 14.4474H17.125L9.25 7.5L7.5 26.6053C7.5 31.8158 11 40.5 23.25 40.5C35.5 40.5 39 31.8158 39 26.6053C39 24.5211 37.8333 13 37.25 7.5L30.25 14.4474Z" stroke="#363636" stroke-width="2" stroke-linejoin="round"></path>
    <path d="M15 27H3" stroke="#363636" stroke-width="2" stroke-linecap="round" stroke-linejoin="round"></path>
    <path d="M45 27H33" stroke="#363636" stroke-width="2" stroke-linecap="round" stroke-linejoin="round"></path>
    <path d="M16.5 34.5H4.5" stroke="#363636" stroke-width="2" stroke-linecap="round" stroke-linejoin="round"></path>
    <path d="M43.5 34.5H31.5" stroke="#363636" stroke-width="2" stroke-linecap="round" stroke-linejoin="round"></path>
    <path d="M23.25 27V30C24.25 31 26.7 32.4 28.5 30" stroke="#363636" stroke-width="2" stroke-linecap="round" stroke-linejoin="round"></path>
    <path d="M23.25 30C22.25 31 19.8 32.4 18 30" stroke="#363636" stroke-width="2" stroke-linecap="round" stroke-linejoin="round"></path>
  </symbol>
  <symbol fill="none" xmlns="http://www.w3.org/2000/svg" viewBox="0 0 48 48" id="cat-open">
    <path d="M30.25 14.4474H17.125L8.5 10L7.5 26.6053C7.5 31.8158 11 40.5 23.25 40.5C35.5 40.5 39 31.8158 39 26.6053C39 24.5211 38.5833 15.5 38 10L30.25 14.4474Z" stroke="#363636" stroke-width="2" stroke-linejoin="round"></path>
    <path d="M7 27H1" stroke="#363636" stroke-width="2" stroke-linecap="round" stroke-linejoin="round"></path>
    <path d="M47 27H40" stroke="#363636" stroke-width="2" stroke-linecap="round" stroke-linejoin="round"></path>
    <path d="M9 34H2" stroke="#363636" stroke-width="2" stroke-linecap="round" stroke-linejoin="round"></path>
    <path d="M46 34H37.5" stroke="#363636" stroke-width="2" stroke-linecap="round" stroke-linejoin="round"></path>
    <path d="M23 28V29C23.7619 29.6936 25.6286 30.7455 27 29.0808" stroke="#363636" stroke-width="2" stroke-linecap="round" stroke-linejoin="round"></path>
    <path d="M23 29C22.2381 29.7546 20.3714 30.8111 19 29" stroke="#363636" stroke-width="2" stroke-linecap="round" stroke-linejoin="round"></path>
    <circle cx="32" cy="27" r="1" fill="#363636"></circle>
    <circle cx="15" cy="27" r="1" fill="#363636"></circle>
    <circle cx="32" cy="34" r="1" fill="#363636"></circle>
    <circle cx="15" cy="34" r="1" fill="#363636"></circle>
  </symbol>
  <symbol fill="none" xmlns="http://www.w3.org/2000/svg" viewBox="0 0 24 25" id="cart">
    <g clip-path="url(#clip0_4_3394)">
      <path d="M9 22.7542C9.55228 22.7542 10 22.3064 10 21.7542C10 21.2019 9.55228 20.7542 9 20.7542C8.44772 20.7542 8 21.2019 8 21.7542C8 22.3064 8.44772 22.7542 9 22.7542Z" stroke="#363636" stroke-width="2" stroke-linecap="round" stroke-linejoin="round"></path>
      <path d="M20 22.7542C20.5523 22.7542 21 22.3064 21 21.7542C21 21.2019 20.5523 20.7542 20 20.7542C19.4477 20.7542 19 21.2019 19 21.7542C19 22.3064 19.4477 22.7542 20 22.7542Z" stroke="#363636" stroke-width="2" stroke-linecap="round" stroke-linejoin="round"></path>
      <path d="M1 1.75415H5L7.68 15.1442C7.77144 15.6045 8.02191 16.0181 8.38755 16.3124C8.75318 16.6068 9.2107 16.7631 9.68 16.7542H19.4C19.8693 16.7631 20.3268 16.6068 20.6925 16.3124C21.0581 16.0181 21.3086 15.6045 21.4 15.1442L23 6.75415H6" stroke="#363636" stroke-width="2" stroke-linecap="round" stroke-linejoin="round"></path>
    </g>
    <defs>
      <clipPath id="clip0_4_3394">
        <rect width="24" height="24" fill="white" transform="translate(0 0.75415)"></rect>
      </clipPath>
    </defs>
  </symbol>
  <symbol fill="none" xmlns="http://www.w3.org/2000/svg" viewBox="0 0 24 25" id="calendar">
    <g clip-path="url(#clip0_743_5618)">
      <path fill-rule="evenodd" clip-rule="evenodd" d="M3 5.25415C3 4.42572 3.67157 3.75415 4.5 3.75415H19.5C20.3284 3.75415 21 4.42572 21 5.25415V20.2542C21 21.0826 20.3284 21.7542 19.5 21.7542H4.5C3.67157 21.7542 3 21.0826 3 20.2542V5.25415ZM19.5 5.25415H4.5V20.2542H19.5V5.25415Z" fill="#363636"></path>
      <path fill-rule="evenodd" clip-rule="evenodd" d="M16.5 2.25415C16.9142 2.25415 17.25 2.58994 17.25 3.00415V6.00415C17.25 6.41836 16.9142 6.75415 16.5 6.75415C16.0858 6.75415 15.75 6.41836 15.75 6.00415V3.00415C15.75 2.58994 16.0858 2.25415 16.5 2.25415Z" fill="#363636"></path>
      <path fill-rule="evenodd" clip-rule="evenodd" d="M7.5 2.25415C7.91421 2.25415 8.25 2.58994 8.25 3.00415V6.00415C8.25 6.41836 7.91421 6.75415 7.5 6.75415C7.08579 6.75415 6.75 6.41836 6.75 6.00415V3.00415C6.75 2.58994 7.08579 2.25415 7.5 2.25415Z" fill="#363636"></path>
      <path fill-rule="evenodd" clip-rule="evenodd" d="M3 9.00415C3 8.58994 3.33579 8.25415 3.75 8.25415H20.25C20.6642 8.25415 21 8.58994 21 9.00415C21 9.41836 20.6642 9.75415 20.25 9.75415H3.75C3.33579 9.75415 3 9.41836 3 9.00415Z" fill="#363636"></path>
      <path fill-rule="evenodd" clip-rule="evenodd" d="M7.875 12.7539C7.875 12.3397 8.21079 12.0039 8.625 12.0039H11.25C11.5383 12.0039 11.8011 12.1692 11.926 12.429C12.0509 12.6889 12.0158 12.9973 11.8357 13.2224L11.0046 14.2612C11.2477 14.4244 11.4571 14.634 11.6206 14.8786C11.8262 15.1862 11.9528 15.5397 11.9891 15.9079C12.0255 16.276 11.9705 16.6475 11.829 16.9893C11.6875 17.3312 11.4639 17.6328 11.178 17.8676C10.8922 18.1024 10.5528 18.2631 10.19 18.3355C9.82715 18.4078 9.45209 18.3896 9.09801 18.2824C8.74392 18.1752 8.42174 17.9823 8.15998 17.7209C7.86691 17.4282 7.86662 16.9533 8.15933 16.6602C8.45205 16.3671 8.92692 16.3668 9.21999 16.6596C9.30725 16.7467 9.41464 16.811 9.53267 16.8467C9.6507 16.8825 9.77571 16.8885 9.89665 16.8644C10.0176 16.8403 10.1307 16.7868 10.226 16.7085C10.3213 16.6302 10.3958 16.5297 10.443 16.4157C10.4902 16.3018 10.5085 16.1779 10.4964 16.0552C10.4843 15.9325 10.4421 15.8147 10.3735 15.7121C10.305 15.6096 10.2123 15.5256 10.1035 15.4674C9.99474 15.4093 9.87332 15.3789 9.75 15.3789C9.4617 15.3789 9.19891 15.2136 9.07402 14.9538C8.94913 14.6939 8.98425 14.3855 9.16435 14.1604L9.68953 13.5039H8.625C8.21079 13.5039 7.875 13.1681 7.875 12.7539Z" fill="#363636"></path>
      <path fill-rule="evenodd" clip-rule="evenodd" d="M15.3354 12.0828C15.5895 12.2099 15.75 12.4696 15.75 12.7537V17.6287C15.75 18.0429 15.4142 18.3787 15 18.3787C14.5858 18.3787 14.25 18.0429 14.25 17.6287V14.2537L13.95 14.4787C13.6186 14.7272 13.1485 14.66 12.9 14.3287C12.6515 13.9973 12.7186 13.5272 13.05 13.2787L14.55 12.1537C14.7772 11.9832 15.0813 11.9558 15.3354 12.0828Z" fill="#363636"></path>
    </g>
    <defs>
      <clipPath id="clip0_743_5618">
        <rect width="24" height="24" fill="white" transform="translate(0 0.75415)"></rect>
      </clipPath>
    </defs>
  </symbol>
  <symbol fill="none" xmlns="http://www.w3.org/2000/svg" viewBox="0 0 24 24" id="bell-simple">
    <path d="M9 21H15" stroke="#363636" stroke-width="2" stroke-linecap="round" stroke-linejoin="round"></path>
    <path d="M5.26904 9.74994C5.2678 8.86045 5.44262 7.97951 5.78343 7.1579C6.12424 6.33628 6.6243 5.59025 7.25477 4.9628C7.88525 4.33535 8.63368 3.83889 9.45693 3.50204C10.2802 3.16519 11.1619 2.99461 12.0514 3.00013C15.7629 3.02772 18.7317 6.11275 18.7317 9.83468V10.4999C18.7317 13.8577 19.4342 15.8061 20.0529 16.871C20.1196 16.9848 20.1551 17.1142 20.1558 17.246C20.1565 17.3779 20.1224 17.5076 20.0569 17.6221C19.9915 17.7366 19.8971 17.8318 19.7831 17.8982C19.6691 17.9645 19.5397 17.9996 19.4078 17.9999H4.59222C4.46034 17.9996 4.33087 17.9645 4.21689 17.8981C4.1029 17.8318 4.00844 17.7366 3.94301 17.622C3.87759 17.5075 3.84352 17.3778 3.84425 17.2459C3.84498 17.114 3.88048 16.9846 3.94716 16.8709C4.56622 15.8059 5.26904 13.8575 5.26904 10.4999L5.26904 9.74994Z" stroke="#363636" stroke-width="2" stroke-linecap="round" stroke-linejoin="round"></path>
  </symbol>
  <symbol xmlns="http://www.w3.org/2000/svg" viewBox="0 0 14 8" id="arrow-up">
    <path fill-rule="evenodd" clip-rule="evenodd" d="M6.29289 0.292893C6.68342 -0.0976311 7.31658 -0.0976311 7.70711 0.292893L13.7071 6.29289C14.0976 6.68342 14.0976 7.31658 13.7071 7.70711C13.3166 8.09763 12.6834 8.09763 12.2929 7.70711L7 2.41421L1.70711 7.70711C1.31658 8.09763 0.683417 8.09763 0.292893 7.70711C-0.0976311 7.31658 -0.0976311 6.68342 0.292893 6.29289L6.29289 0.292893Z"></path>
  </symbol>
  <symbol xmlns="http://www.w3.org/2000/svg" viewBox="0 0 8 14" id="arrow-right">
    <path fill-rule="evenodd" clip-rule="evenodd" d="M0.292893 0.292893C0.683417 -0.0976311 1.31658 -0.0976311 1.70711 0.292893L7.70711 6.29289C8.09763 6.68342 8.09763 7.31658 7.70711 7.70711L1.70711 13.7071C1.31658 14.0976 0.683417 14.0976 0.292893 13.7071C-0.0976311 13.3166 -0.0976311 12.6834 0.292893 12.2929L5.58579 7L0.292893 1.70711C-0.0976311 1.31658 -0.0976311 0.683417 0.292893 0.292893Z"></path>
  </symbol>
  <symbol xmlns="http://www.w3.org/2000/svg" viewBox="0 0 8 14" id="arrow-left">
    <path fill-rule="evenodd" clip-rule="evenodd" d="M7.70711 0.292893C8.09763 0.683417 8.09763 1.31658 7.70711 1.70711L2.41421 7L7.70711 12.2929C8.09763 12.6834 8.09763 13.3166 7.70711 13.7071C7.31658 14.0976 6.68342 14.0976 6.29289 13.7071L0.292893 7.70711C-0.0976311 7.31658 -0.0976311 6.68342 0.292893 6.29289L6.29289 0.292893C6.68342 -0.0976311 7.31658 -0.0976311 7.70711 0.292893Z"></path>
  </symbol>
  <symbol xmlns="http://www.w3.org/2000/svg" viewBox="0 0 14 8" id="arrow-down">
    <path fill-rule="evenodd" clip-rule="evenodd" d="M0.292893 0.292893C0.683417 -0.0976311 1.31658 -0.0976311 1.70711 0.292893L7 5.58579L12.2929 0.292893C12.6834 -0.0976311 13.3166 -0.0976311 13.7071 0.292893C14.0976 0.683417 14.0976 1.31658 13.7071 1.70711L7.70711 7.70711C7.31658 8.09763 6.68342 8.09763 6.29289 7.70711L0.292893 1.70711C-0.0976311 1.31658 -0.0976311 0.683417 0.292893 0.292893Z"></path>
  </symbol>
  <symbol fill="none" xmlns="http://www.w3.org/2000/svg" viewBox="0 0 24 25" id="add-user">
    <path d="M16 21.7542V19.7542C16 18.6933 15.5786 17.6759 14.8284 16.9257C14.0783 16.1756 13.0609 15.7542 12 15.7542H5C3.93913 15.7542 2.92172 16.1756 2.17157 16.9257C1.42143 17.6759 1 18.6933 1 19.7542V21.7542" stroke="#363636" stroke-width="2" stroke-linecap="round" stroke-linejoin="round"></path>
    <path d="M8.5 11.7542C10.7091 11.7542 12.5 9.96329 12.5 7.75415C12.5 5.54501 10.7091 3.75415 8.5 3.75415C6.29086 3.75415 4.5 5.54501 4.5 7.75415C4.5 9.96329 6.29086 11.7542 8.5 11.7542Z" stroke="#363636" stroke-width="2" stroke-linecap="round" stroke-linejoin="round"></path>
    <path d="M20 8.75415V14.7542" stroke="#363636" stroke-width="2" stroke-linecap="round" stroke-linejoin="round"></path>
    <path d="M23 11.7542H17" stroke="#363636" stroke-width="2" stroke-linecap="round" stroke-linejoin="round"></path>
  </symbol>
</svg>
